<?xml version="1.0" encoding="UTF-8"?>
<svg id="uuid-916d74e4-1ce4-4390-ab6c-7d01d00e251d" data-name="Слой 2" xmlns="http://www.w3.org/2000/svg" viewBox="0 0 4.8 3.6">
  <defs>
    <style>
      .uuid-863ec231-d2e1-42d9-986b-69637097d9a9 {
        fill: #d4d4d4;
        fill-rule: evenodd;
      }
    </style>
  </defs>
  <g id="uuid-b8c221c0-520f-47e6-905e-8d8ad3b543fa" data-name="Слой 1">
    <path id="uuid-802c328c-8ffb-491f-b241-c078cb9e57a6" data-name="addPlaylist" class="uuid-863ec231-d2e1-42d9-986b-69637097d9a9" d="M.21,0H2.82c.12,0,.21,.13,.21,.28s-.1,.28-.21,.28H.21c-.12,0-.21-.13-.21-.28s.1-.28,.21-.28H.21ZM2.32,1.53c-.11,0-.2,.12-.2,.27,0,.15,.09,.27,.2,.27h.94v1.26c0,.15,.09,.27,.2,.27,.11,0,.2-.12,.2-.27v-1.26h.94c.11,0,.2-.12,.2-.27s-.09-.27-.2-.27h-.94V.27c0-.15-.09-.27-.2-.27-.11,0-.2,.12-.2,.27V1.53h-.94ZM.21,3.6H1.69c.12,0,.21-.13,.21-.28s-.1-.28-.21-.28H.21c-.12,0-.21,.13-.21,.28s.1,.28,.21,.28H.21ZM.21,2.08H1.69c.12,0,.21-.13,.21-.28s-.1-.28-.21-.28H.21c-.12,0-.21,.13-.21,.28s.1,.28,.21,.28Z"/>
  </g>
</svg>