<?xml version="1.0" encoding="UTF-8"?>
<svg id="uuid-d1e456e5-1486-4a0c-85b9-5f0fb98fed7b" data-name="Слой 2" xmlns="http://www.w3.org/2000/svg" viewBox="0 0 36 36">
  <defs>
    <style>
      .uuid-9767141c-c1ca-4cd7-8d71-5935e49263d9 {
        fill: #d4d4d5;
        fill-rule: evenodd;
      }
    </style>
  </defs>
  <g id="uuid-93914c5b-3389-4e33-9105-70cb4e7d5712" data-name="Слой 1">
    <path class="uuid-9767141c-c1ca-4cd7-8d71-5935e49263d9" d="M27.02,23.05v.43c0,1.3-.09,2.52-1.19,3.4-.94,.77-1.39,.91-3.06,.91H13.24c-1.64,0-2.13-.14-3.06-.91-1.11-.88-1.19-2.1-1.19-3.4v-.43c0-2.1,.71-5.05,2.44-6.21,.48-.34,.88-.57,1.53-.65,.17-.03,.31-.03,.45-.03,.17-.03,.34-.03,.48,0,.68,.03,1.73,1.22,3.15,1.56,.28,.06,.6,.09,.96,.09s.68-.03,.96-.09c1.42-.34,2.47-1.53,3.15-1.56,.14-.03,.31-.03,.48,0,.14,0,.28,0,.45,.03,.65,.09,1.05,.31,1.53,.65,1.73,1.16,2.44,4.11,2.44,6.21h0ZM6.01,4.91c0,.57,.17,.85,.31,1.28,.88,3.2-1.19,5.95-4,6.32-.79,.11-1.36,.51-1.79,1.28-.62,1.13-.82,6.8,.03,8.11,1.11,1.73,2.86,.4,4.73,2.75,2.15,2.66,.48,5.47,.48,6.07,0,1.64,1.36,2.49,2.75,3.43,.71,.45,3.12,1.87,4.08,1.87,.45,0,1.11-.26,1.47-.65,.74-.77,.91-1.47,2.35-2.1,2.01-.88,3.83-.28,5.24,1.22,.23,.23,.28,.37,.51,.6,1.13,1.3,2.55,.54,3.71-.06,.96-.51,3.4-2.01,3.97-2.95,.91-1.53-.17-2.27-.17-4.14,0-2.18,1.36-3.94,3.26-4.62,.85-.28,1.79-.11,2.49-1.39,.71-1.3,.71-6.69,.03-8.02-.23-.45-.48-.74-.94-.96-.88-.48-2.24-.17-3.69-2.07-1.9-2.47-.57-4.42-.57-5.87,0-1.76-3.29-3.51-4.54-4.17-1.22-.65-2.78-1.39-3.91-.17-.68,.74-.82,1.22-2.21,1.79-1.59,.65-3.23,.31-4.54-.74-.57-.45-.62-.71-.94-1.05-1.47-1.56-4.03,.14-5.64,1.16-1.16,.71-2.52,1.62-2.52,3.09h0ZM22.68,13.95c.48,.62,.85,1.33,1.08,2.13h.09c.17,0,.37,0,.57,.03,.82,.11,1.33,.37,1.96,.74,2.21,1.36,3.09,4.79,3.09,7.23v.48c0,1.53-.09,2.92-1.5,3.97-1.19,.88-1.79,1.02-3.88,1.02H11.94c-2.1,0-2.69-.14-3.88-1.02-1.42-1.05-1.5-2.44-1.5-3.97v-.48c0-2.44,.88-5.87,3.09-7.23,.62-.37,1.13-.62,1.96-.74,.2-.03,.4-.03,.57-.03h.09c.2-.65,.48-1.28,.88-1.81-.51-.48-.94-1.02-1.28-1.64-.77-1.42-.65-2.1-.65-3.63,0-.68,.4-1.67,.68-2.15,.2-.31,.37-.57,.6-.85,.37-.43,.65-.77,1.11-1.08,1.64-1.19,2.32-1.39,4.62-1.39,3.26,0,6.15,3,6.15,6.32,0,1.5-.65,2.98-1.67,4.11h0Zm-10.03-3.91c0,1.33-.09,1.93,.51,3.15,1.28,2.52,4.11,3.71,6.72,2.55,1.79-.82,3.12-2.83,3.12-4.96,0-2.86-2.27-5.44-4.85-5.44-1.79,0-2.32,.17-3.63,1.19-.37,.28-.57,.57-.85,.94-.2,.26-.34,.45-.48,.74-.23,.4-.54,1.25-.54,1.84h0Z"/>
  </g>
</svg>