<?xml version="1.0" encoding="UTF-8"?>
<svg id="uuid-07cd6908-37c0-4c67-a759-ea2915e4142a" data-name="Слой 2" xmlns="http://www.w3.org/2000/svg" viewBox="0 0 96 96.01">
  <defs>
    <style>
      .uuid-0ccdd9d0-2467-4da4-b2be-a274ab5340ca {
        fill: #d4d4d5;
        fill-rule: evenodd;
      }
    </style>
  </defs>
  <g id="uuid-9abe4a9c-fd13-4368-8378-38315aedd7c5" data-name="Слой 1">
    <path class="uuid-0ccdd9d0-2467-4da4-b2be-a274ab5340ca" d="M0,77.07c0,6.58,.4,11,5.44,15.34,.99,.85,2.35,1.73,3.6,2.24,1.73,.71,3.86,1.36,6.24,1.36H52.16c-4.37-5.02-6.97-11.31-6.97-18.11v-.79c0-12.05,7.97-22.31,19.02-25.99,.96-.43,1.96-.82,2.98-1.16-.85-.68-1.79-1.3-2.78-1.81-2.35-1.22-5.13-1.81-7.99-1.81-3.94,0-12.64,12.87-28.2,4.51-2.55-1.39-5.53-4.51-8.45-4.51-10.6,0-16.61,9.44-18.43,19.19-.34,1.84-.71,3.6-.91,5.41-.26,2.01-.43,4-.43,6.15H0Zm66.59-18.77h2.69V27.44c0-3.66,2.3-6.63,5.13-6.63h0c.17,0,.31,0,.48,.03,.68,.03,1.36,.28,2.01,.74l16.24,11.37c2.41,1.7,3.51,5.75,2.44,9.01h0c-1.08,3.26-3.94,4.56-6.38,2.86l-9.67-6.77v38.75c0,9.84-6.24,17.91-13.83,17.91h-.48c-7.34,0-13.38-7.8-13.38-17.32h0c0-10.49,6.63-19.08,14.74-19.08h0ZM15.65,21.94c0,2.95-.06,4.25,.68,7.17,.2,.82,.37,1.33,.62,2.13l1.25,2.86c5.41,10.37,17.43,15.14,28.63,10.26,1.45-.62,3.91-2.24,5.05-3.34,2.55-2.47,4.54-4.54,6.09-8.08,4.54-10.2,1.42-21.83-7.03-28.52-2.13-1.67-4.73-2.98-7.29-3.69-1.53-.4-3.17-.65-4.82-.74h-2.15c-2.98,.14-5.92,.85-8.42,2.13-7,3.66-12.61,11.42-12.61,19.81h0Z"/>
  </g>
</svg>