<?xml version="1.0" encoding="UTF-8"?>
<svg id="uuid-23f534e4-5c1c-466a-9596-9524bba5468e" data-name="Слой 2" xmlns="http://www.w3.org/2000/svg" viewBox="0 0 36 36">
  <defs>
    <style>
      .uuid-ce1eee0f-d7a0-4c33-ae31-63c9927072e5 {
        fill: #d4d4d5;
        fill-rule: evenodd;
      }
    </style>
  </defs>
  <g id="uuid-701b0d21-fcd6-4a94-b0dd-ec06845d3547" data-name="Слой 1">
    <path class="uuid-ce1eee0f-d7a0-4c33-ae31-63c9927072e5" d="M0,17.72c0,1.19,.11,1.76,.99,2.66,.51,.51,1.25,.94,2.24,.94,.91-.03,.65-.09,.65,2.52,0,1.93-.14,8.39,.11,9.35,.43,1.53,1.93,2.81,3.54,2.81h5.95c1.36,0,1.08-1.64,1.08-2.38v-6.89c-.03-1.16,.68-1.98,1.53-1.98h2.41c.96-1.96,5.39-2.1,5.24-7.54-.14-5.07,.14-8.79,2.78-10.09-2.52-2.52-4.79-4.73-5.44-5.41-1.28-1.25-1.53-1.7-3.37-1.7-1.28,0-2.1,1.02-2.75,1.67L1.67,14.97c-.65,.65-1.67,1.47-1.67,2.75H0Zm25.94-6.41v11.23h-1.11c-3.03,0-5.39,3.51-5.39,6.6,0,1.9,.2,3.34,1.33,4.82,.37,.45,.82,.96,1.33,1.28,1.62,1.05,3.57,1.02,5.1-.11,2.24-1.64,2.66-4.03,2.66-7.06V15.22c2.41,1.22,4.28,3.91,5.67,2.01,.23-.37,.4-.79,.45-1.25v-.77c-.09-.82-.51-1.64-1.33-2.24-.85-.62-5.92-4.25-6.58-4.25-1.53,0-2.15,1.22-2.15,2.58h0Z"/>
  </g>
</svg>