<?xml version="1.0" encoding="UTF-8"?>
<svg id="uuid-9560bd10-0836-4886-a54c-f85adfe32854" data-name="Слой 2" xmlns="http://www.w3.org/2000/svg" viewBox="0 0 3.6 3.6">
  <defs>
    <style>
      .uuid-45db4d8c-0372-4571-a4ba-e75e19c2e5c0 {
        fill: #d4d4d4;
        fill-rule: evenodd;
      }
    </style>
  </defs>
  <g id="uuid-18d77c98-74b1-4d0f-ba8c-6a8931852829" data-name="Слой 1">
    <path id="uuid-d0480ede-971f-4413-b313-f660f353c9a3" data-name="browse" class="uuid-45db4d8c-0372-4571-a4ba-e75e19c2e5c0" d="M0,.37V3.21c0,.18,.18,.39,.37,.39H3.22c.11,0,.2-.06,.26-.13,.06-.07,.12-.19,.12-.3V1.1c0-.17-.11-.32-.21-.38-.12-.07-.33-.05-.49-.05H1.84c-.04-.07-.33-.5-.4-.57-.04-.04-.14-.09-.22-.09H.36C.24,0,.1,.1,.04,.23c-.02,.03-.04,.1-.04,.15H0Zm.83,.31c-.19,0-.34,.18-.34,.4V3.37c-.17,0-.33-.18-.33-.33V.63s0-.28,.02-.31c.05-.11,.04-.14,.15-.14,.4,0,.74,0,.99,0,.08,.06,.27,.32,.4,.51H.83Zm.48,1.37c0-.11,.03-.23,.07-.32,.03-.06,.07-.12,.11-.16,0,0,0-.01,.02-.02,.18-.18,.45-.19,.65-.04,.17,.14,.26,.34,.24,.6,0,.13-.06,.23-.11,.32,.03,.02,.24,.26,.24,.3,0,.05-.03,.11-.07,.11-.08,0-.2-.22-.28-.28-.05,.03-.07,.06-.15,.09-.15,.06-.32,.04-.45-.05l-.12-.1s0-.01-.02-.03c0,0,0-.01-.02-.02-.07-.1-.13-.26-.13-.4Z"/>
  </g>
</svg>