<?xml version="1.0" encoding="UTF-8"?>
<svg id="uuid-95f945e2-10e6-40cf-affc-0ab583f19e25" data-name="Слой 2" xmlns="http://www.w3.org/2000/svg" viewBox="0 0 3.6 3.6">
  <defs>
    <style>
      .uuid-6f4c8e3c-daf6-489b-8341-7e5e272ade2d {
        fill: #d4d4d4;
        fill-rule: evenodd;
      }
    </style>
  </defs>
  <g id="uuid-22af83e7-9021-4ade-bf44-c106a9dbfb50" data-name="Слой 1">
    <path id="uuid-dca6bf37-a9ae-4da8-9ed0-41ee6e9de56a" data-name="currentPlaylist" class="uuid-6f4c8e3c-daf6-489b-8341-7e5e272ade2d" d="M1.18,2.93H3.29c.17,0,.31,.15,.31,.33h0c0,.18-.14,.33-.31,.33H1.18c-.17,0-.31-.15-.31-.33H.87c0-.18,.14-.33,.31-.33h0ZM.31,0C.48,0,.62,.15,.62,.34s-.14,.33-.31,.33-.31-.15-.31-.33S.14,0,.31,0H.31Zm.31,1.52v.56s-.03,.05-.07,.05-.38-.2-.44-.23c-.13-.07-.16-.11-.03-.18,.12-.07,.28-.15,.4-.22,.02-.01,.05-.03,.08-.03h.01s.03,0,.04,.02c0,0,.02,.02,.02,.03H.62Zm-.31,1.41c.17,0,.31,.15,.31,.33s-.14,.33-.31,.33-.31-.15-.31-.33,.14-.33,.31-.33H.31ZM1.18,0H3.29c.17,0,.31,.15,.31,.33h0c0,.18-.14,.33-.31,.33H1.18c-.17,0-.31-.15-.31-.33H.87c0-.18,.14-.33,.31-.33h0Zm0,1.47H3.29c.17,0,.31,.15,.31,.33h0c0,.18-.14,.33-.31,.33H1.18c-.17,0-.31-.15-.31-.33H.87c0-.18,.14-.33,.31-.33Z"/>
  </g>
</svg>