<?xml version="1.0" encoding="UTF-8"?>
<svg id="uuid-a2c0f5c1-d3c7-4300-b1a3-5a7b0e1b9f92" data-name="Слой 2" xmlns="http://www.w3.org/2000/svg" viewBox="0 0 5.71 7.59">
  <defs>
    <style>
      .uuid-ec509b7c-cbf3-48c7-97e4-03886eadeb13 {
        fill-rule: evenodd;
      }
    </style>
  </defs>
  <g id="uuid-84b4b990-abcc-4c50-a01d-89e28d20ed27" data-name="Слой 1">
    <path class="uuid-ec509b7c-cbf3-48c7-97e4-03886eadeb13" d="M.6,6.51c.06,0,1.05-.6,1.25-.68-.06-.09-.2-.2-.26-.23-.23-.17-.74-.45-.99-.48,0,.14-.03,.26-.06,.37,0,.09-.03,.11-.03,.2-.03,.14-.14,.65-.09,.77,.03,.03,.11,.09,.17,.06H.6Zm-.6,.77c0,.14,.11,.31,.26,.31H5.41c.4,0,.4-.6,0-.6H.26c-.14,0-.26,.14-.26,.28H0Zm.74-2.44c.45,.14,.45,.17,.85,.37,.09,.06,.4,.28,.43,.37,.09-.06,.65-.88,.71-.96l.88-1.25q.03-.06,.09-.11l1.13-1.62c-.2-.09-.54-.4-.79-.51-.11-.09-.31-.26-.45-.31-.11,.11-1.98,2.78-2.13,3-.11,.14-.26,.37-.37,.48-.06,.09-.34,.45-.34,.54H.74ZM3.74,.56c.2,.06,.62,.43,.85,.57,.14,.09,.31,.2,.4,.26,.06-.06,.17-.23,.23-.31,.2-.4-.06-1.19-.85-1.05-.17,.03-.31,.11-.4,.2-.06,.06-.17,.26-.23,.34h0Z"/>
  </g>
</svg>