<?xml version="1.0" encoding="UTF-8"?>
<svg id="uuid-05ec4b76-4963-4fb1-9c7a-3530e0903bdb" data-name="Слой 2" xmlns="http://www.w3.org/2000/svg" viewBox="0 0 9.61 9.61">
  <defs>
    <style>
      .uuid-4f9779f9-0021-43b4-8ad8-477d8168ca43 {
        fill-rule: evenodd;
      }
    </style>
  </defs>
  <g id="uuid-28831111-794c-4bb2-91d7-d9d7e2d7f01a" data-name="Слой 1">
    <path class="uuid-4f9779f9-0021-43b4-8ad8-477d8168ca43" d="M5.53,4.14c0,.14,.14,.26,.2,.31,.09,.11,.17,.23,.26,.31-.09,.14-.4,.43-.4,.57v.11l.11,.03c.09,0,.37-.43,.45-.51,.03,.06,.43,.57,.51,.57,.06,0,.11-.09,.11-.14,0-.14-.4-.51-.45-.62,.06-.06,.34-.37,.34-.48v-.11l-.11-.03c-.09,0-.34,.37-.4,.43-.06-.11-.17-.2-.26-.28-.03-.09-.17-.26-.26-.26-.03,0-.11,.06-.11,.11h0ZM.62,1.9c-.26,.06-.31,.28-.45,.48-.31,.62-.11,1.56-.06,2.3l.11,1.81c.06,.6,.11,2.24,.26,2.55,.17,.34,.54,.43,.96,.45l.62,.03c.11,.03,.23,0,.34,0s.17,.03,.31,.03c.82,0,1.76,.06,2.61,.06l2.69-.06c.23,0,.48,.06,.62-.09,.11-.09,.31-.45-.43-.45,.06-.09,.09-.11,.14-.23,.06-.09,.06-.14,.09-.28l.28-3.46c.03-.26,.03-.48,.06-.71l.06-.71c0-.37-.28-.68-.57-.68V1.76c0-.37-.17-.62-.34-.77-.23-.2-.51-.14-.88-.14-.14,0-.26-.03-.45-.03l-1.45-.03c-1.33,0-2.58-.06-3.91-.06-.2,0-.4,.23-.51,.37-.11,.2-.11,.43-.11,.79H.62Zm.26-.14h3.26c.17,0,.34,.03,.48,.2,.23,.23,.51,.77,.71,.77l2.66-.03v-.74c0-.34-.14-.57-.31-.71-.2-.14-.45-.11-.79-.11-.14,0-.26-.03-.43-.03l-1.36-.03c-1.22,0-2.41-.03-3.63-.03-.2,0-.4,.2-.48,.31-.06,.14-.09,.26-.11,.4H.88Zm7.11,1.28c-.91,0-1.87,.03-2.78,.03-.26,0-.71-.96-1.02-.96H.88c-.23,.06-.26,.26-.37,.45,.03,1.08,.17,5.73,.45,6.15,.31,.45,5.84,.26,6.94,.14,.37-.28,.57-4.2,.62-5.16,0-.34-.26-.62-.54-.65h0ZM.88,2.1H.88v-.03H.88v-.03H.88v-.03H.88v-.03H.88v-.03H.88v-.03H.88v-.03H.88v-.03H.88v-.03H.88v-.03H.88v-.03H.88v-.03m7.74,.11c.17,.06,.4,.03,.57-.03,.17-.03,.43,.03,.43-.17s-.34-.11-.57-.09l-.34,.03c-.11,.03-.14,.14-.09,.26h0Zm-.6-1.08c0,.09,.14,.26,.23-.03,.03-.09,.06-.17,.09-.23,.14-.4,.23-.28,.17-.54-.14,0-.2,0-.31,.31-.06,.09-.17,.37-.17,.48h0Zm.37,.37v.14c.11,.06,.14,.03,.26-.06l.45-.37c.11-.09,.2-.11,.2-.26,0-.06-.06-.2-.23-.06-.11,.11-.68,.51-.68,.6h0ZM2.86,7.48c0,.11,.06,.17,.14,.17s.57-.77,1.3-.77c.51,0,.85,.06,1.25,.43,.26,.23,.17,.28,.4,.23,.03-.2-.03-.23-.26-.45-.48-.45-1.13-.62-1.76-.43-.31,.09-.54,.23-.77,.45-.06,.06-.31,.28-.31,.37h0Zm-.43-2.69c-.14-.06-.4-.54-.48-.54s-.14,.06-.14,.14c0,.11,.4,.57,.45,.6-.11,.17-.43,.43-.45,.62,.11,.26,.2,.11,.31-.03,.09-.11,.23-.26,.28-.37,.17,.11,.34,.43,.43,.45,.06,.03,.17-.03,.17-.14,0-.09-.34-.43-.4-.54,.03-.03,.48-.51,.48-.65,0-.11-.09-.14-.14-.14s-.4,.51-.51,.6h0Z"/>
  </g>
</svg>