<?xml version="1.0" encoding="UTF-8"?>
<svg id="uuid-1c291d7a-64a0-48dc-96e4-b0df2223eebe" data-name="Слой 2" xmlns="http://www.w3.org/2000/svg" viewBox="0 0 4.08 3.59">
  <defs>
    <style>
      .uuid-493596f4-afe1-4990-9e4e-ecc66972e759 {
        fill: #d4d4d5;
        fill-rule: evenodd;
      }
    </style>
  </defs>
  <g id="uuid-95b4901c-4037-418d-9bbd-ef66816d8f73" data-name="Слой 1">
    <path class="uuid-493596f4-afe1-4990-9e4e-ecc66972e759" d="M0,1.1c0,1.05,.74,1.39,1.39,2.01,.17,.17,.45,.37,.65,.48l1.19-.94c.54-.51,.85-.77,.85-1.56,0-.31-.14-.57-.31-.74-.34-.4-.85-.45-1.33-.23-.23,.11-.23,.17-.4,.28-.17-.11-.17-.17-.37-.26C.82-.32,0,.39,0,1.1H0Zm.31,.17c0,.71,1.08,1.59,1.73,1.96l1.02-.77c.43-.4,.71-.6,.71-1.19,0-.23-.11-.57-.23-.68-.31-.28-.77-.23-1.16-.06-.2,.09-.2,.11-.34,.23-.14-.09-.14-.14-.31-.23-.34-.17-.71-.2-.99-.06-.28,.14-.43,.51-.43,.79H.31Z"/>
  </g>
</svg>