<?xml version="1.0" encoding="UTF-8"?>
<svg id="uuid-17c0187d-c7cc-49c9-9eda-43ae47e30a9b" data-name="Слой 2" xmlns="http://www.w3.org/2000/svg" viewBox="0 0 36 36">
  <defs>
    <style>
      .uuid-25bea7f5-b908-42af-9a21-f80228a48a93 {
        fill: #d4d4d5;
        fill-rule: evenodd;
      }
    </style>
  </defs>
  <g id="uuid-86b0c9ef-c0a1-4575-9aa6-c8d6cd49a1b5" data-name="Слой 1">
    <path class="uuid-25bea7f5-b908-42af-9a21-f80228a48a93" d="M0,3.88V27.5c0,2.58,2.04,3.29,3.74,4.17l5.39,2.81c.6,.28,1.19,.6,1.79,.91,.71,.4,1.45,.6,2.13,.62h.54c2.18-.11,3.94-1.79,3.94-3.66v-2.1h6.69c2.15,0,4.17-1.73,4.17-3.88v-4.28c0-1.47-2.44-1.7-2.58,0-.09,.99,.11,4.17-.06,4.73l-.37,.6c-.26,.28-.6,.51-1.08,.51h-6.77V10.35c0-1.76-1.13-2.78-2.49-3.46l-4.05-2.07c-.4-.2-4.68-2.35-4.85-2.58,1.62,0,17.46-.06,18.2,.06,1.39,.23,1.47,1.05,1.47,1.98,0,.65-.11,4.42,.09,4.85,.48,1.25,2.49,.99,2.49-.48V3.88c0-2.1-1.93-3.88-3.94-3.88H3.94C1.96,0,0,1.73,0,3.88H0Zm29.31,7.51c0,.99,1.64,1.73,2.3,2.61-.82,0-11.51-.11-12.02,.06-.96,.37-.99,1.67,0,2.1,.43,.17,4.45,.09,5.1,.09h6.92c-.65,.88-3.17,2.07-1.96,3.29,.23,.23,.62,.37,1.02,.37,.71,0,1.16-.57,1.53-.94,.48-.4,.88-.77,1.33-1.19,.54-.45,2.47-1.98,2.47-2.58,0-.74-.57-1.05-.99-1.42l-2.69-2.41c-.85-.77-.85-1.02-1.9-1.02-.62,0-1.11,.74-1.11,1.05h0ZM2.61,3.15V28.23c4.08,2.13,9.61,6.01,11.4,5.39,1.25-.43,1.05-3.12,1.08-6.86,.03-5.24-.23-12.39-.26-17.38L2.61,3.15Z"/>
  </g>
</svg>