<?xml version="1.0" encoding="UTF-8"?>
<svg id="uuid-51e81c5e-985e-4e64-92fe-9c75178df6d5" data-name="Слой 2" xmlns="http://www.w3.org/2000/svg" viewBox="0 0 3.6 3.6">
  <defs>
    <style>
      .uuid-250ae96c-4411-402c-bb04-492997d0c15a {
        fill: #d4d4d4;
        fill-rule: evenodd;
      }
    </style>
  </defs>
  <g id="uuid-294d0c0d-6ec1-494c-abee-ac5a1728a41a" data-name="Слой 1">
    <path id="uuid-0526011f-72cd-472f-8bdb-7cb69313a241" data-name="highVolume" class="uuid-250ae96c-4411-402c-bb04-492997d0c15a" d="M2.76,.65c0,.06,.03,.1,.06,.14,.1,.11,.16,.16,.25,.33,.26,.52,.22,1.13-.15,1.58-.03,.04-.06,.06-.09,.1-.12,.13-.06,.32,.13,.32,.1,0,.21-.15,.27-.22,.25-.3,.37-.7,.38-1.09l-.02-.23c-.04-.35-.22-.75-.46-1-.09-.08-.09-.1-.19-.1-.09,0-.17,.09-.17,.18h0Zm-.5,.5c0-.09,.09-.17,.18-.17,.11,0,.2,.12,.26,.21,.19,.28,.24,.59,.14,.92-.03,.1-.05,.13-.09,.21-.05,.1-.18,.29-.3,.29-.17,0-.23-.19-.15-.29l.05-.06c.23-.25,.23-.6,.05-.88l-.08-.09c-.05-.06-.05-.07-.05-.14h0Zm-2.25,.15v.99c0,.12,.04,.24,.12,.31,.15,.12,.32,.09,.56,.09,.13,0,.12-.02,.18,.04,.07,.08,.14,.14,.22,.22l.55,.55s.06,.07,.13,.09c.06,.01,.12-.01,.16-.05,.04-.04,.06-.09,.06-.17V.22C1.98,.07,1.88-.02,1.77,0c-.07,.01-.09,.04-.13,.09L.87,.85c-.06,.06-.04,.04-.17,.04h-.22c-.2,0-.35,.01-.44,.21-.03,.05-.04,.11-.04,.19Z"/>
  </g>
</svg>