<?xml version="1.0" encoding="UTF-8"?>
<svg id="uuid-67561541-4354-4726-8eda-e44aa0cb0c6f" data-name="Слой 2" xmlns="http://www.w3.org/2000/svg" viewBox="0 0 3.6 3.6">
  <defs>
    <style>
      .uuid-85fe067f-6a5d-47fb-a50e-fc25785955e8 {
        fill: #d4d4d4;
        fill-rule: evenodd;
      }
    </style>
  </defs>
  <g id="uuid-47f6b574-5da2-449a-9b62-940d8efeb198" data-name="Слой 1">
    <path id="uuid-9d07531b-1089-4da8-be79-42fc4a96db3a" data-name="home" class="uuid-85fe067f-6a5d-47fb-a50e-fc25785955e8" d="M0,1.77c0,.12,.01,.18,.1,.27,.05,.05,.12,.1,.22,.09,.09,0,.06,0,.06,.25,0,.19-.01,.84,.01,.94,.04,.15,.19,.28,.35,.28h.6c.13,0,.11-.16,.11-.24v-.69c0-.11,.07-.2,.15-.2h.38s.09,.03,.11,.06c.03,.03,.04,.07,.04,.13,0,.1,0,.82,0,.86,.01,.04,.05,.07,.1,.07h.6c.09,0,.18-.04,.23-.09,.17-.15,.14-.26,.14-.49v-.79c0-.09-.02-.1,.06-.1,.18,0,.31-.15,.32-.31v-.04c0-.05-.02-.11-.05-.15-.05-.07-1.27-1.28-1.44-1.45-.13-.13-.15-.17-.34-.17-.13,0-.21,.1-.28,.17L.17,1.5c-.07,.07-.17,.15-.17,.28Z"/>
  </g>
</svg>