<?xml version="1.0" encoding="UTF-8"?>
<svg id="uuid-7e99b158-c357-4c27-bc21-7412634bf14b" data-name="Слой 2" xmlns="http://www.w3.org/2000/svg" viewBox="0 0 9.61 9.61">
  <defs>
    <style>
      .uuid-ca09114a-b4cc-482a-8182-87db159bf0cb {
        fill: #010101;
        fill-rule: evenodd;
      }
    </style>
  </defs>
  <g id="uuid-379ff5c9-fef9-4cbc-9b4a-8b311ca2c807" data-name="Слой 1">
    <path class="uuid-ca09114a-b4cc-482a-8182-87db159bf0cb" d="M0,1.11v7.4c0,.57,.51,1.11,1.02,1.11h7.54c.54,0,1.05-.54,1.05-1.11V1.11c0-.57-.51-1.11-1.05-1.11H1.02C.51,0,0,.54,0,1.11H0ZM5.58,6.63c.37-.43,.77-.82,1.13-1.11,.43-.31,2.81,3.06,1.96,3.06H1.47c-1.59,0,.77-3.23,1.7-4.59,.4-.62,1.42,1.05,2.41,2.64h0ZM6.77,1.79c.6,0,1.05,.51,1.05,1.13s-.45,1.13-1.05,1.13-1.08-.51-1.08-1.13,.48-1.13,1.08-1.13h0Z"/>
  </g>
</svg>