<?xml version="1.0" encoding="UTF-8"?>
<svg id="uuid-287f9c66-b832-44ed-9ba6-70a5e6a67bc9" data-name="Слой 2" xmlns="http://www.w3.org/2000/svg" viewBox="0 0 2.88 3.6">
  <defs>
    <style>
      .uuid-b905cb3a-44c6-491f-baaa-b2a21327ca63 {
        fill: #d4d4d4;
        fill-rule: evenodd;
      }
    </style>
  </defs>
  <g id="uuid-b05d18c3-1fec-4c7f-9cbf-b2ec2c1887f6" data-name="Слой 1">
    <path id="uuid-90c8053c-1f7d-4425-a99b-66e1a7cd5ac6" data-name="lowVolume" class="uuid-b905cb3a-44c6-491f-baaa-b2a21327ca63" d="M2.25,1.15c0,.07,0,.09,.05,.14l.08,.09c.19,.29,.18,.63-.05,.88l-.05,.06c-.08,.1-.02,.29,.15,.29,.12,0,.25-.2,.3-.29,.04-.08,.06-.12,.09-.21,.09-.33,.04-.64-.14-.92-.06-.08-.15-.21-.26-.21-.09,0-.18,.08-.18,.17h0Zm-2.25,.15v.99c0,.12,.04,.24,.12,.31,.15,.12,.32,.09,.56,.09,.13,0,.12-.02,.18,.04,.07,.08,.14,.14,.22,.22l.55,.55s.06,.07,.13,.09c.06,.01,.12-.01,.16-.05,.04-.04,.06-.09,.06-.17V.22C1.98,.07,1.88-.02,1.77,0c-.07,.01-.09,.04-.13,.09L.87,.85c-.06,.06-.04,.04-.17,.04h-.22c-.2,0-.35,.01-.44,.21-.03,.05-.04,.11-.04,.19Z"/>
  </g>
</svg>