<?xml version="1.0" encoding="UTF-8"?>
<svg id="uuid-97dcfb66-ad0d-475c-9faf-41fd9cc70b11" data-name="Слой 2" xmlns="http://www.w3.org/2000/svg" viewBox="0 0 4.8 3.6">
  <defs>
    <style>
      .uuid-0f677c13-efd6-4953-a3e2-9a3b37c60f94 {
        fill: #d4d4d4;
        fill-rule: evenodd;
      }
    </style>
  </defs>
  <g id="uuid-55132cf9-5369-4ed9-b354-612079b5bdba" data-name="Слой 1">
    <path id="uuid-0fd98af3-c245-4533-86ea-571ffb4d1f84" data-name="maximize" class="uuid-0f677c13-efd6-4953-a3e2-9a3b37c60f94" d="M1.37,0h2.82c.33,0,.6,.27,.6,.59v1.77c0,.32-.27,.59-.6,.59h-.1v-.3c.22,0,.4-.18,.4-.39V.69c0-.22-.18-.39-.4-.39H1.47c-.19,0-.35,.13-.39,.3h-.32c0-.32,.27-.59,.6-.59h0ZM.6,.65c-.33,0-.6,.27-.6,.59v1.77c0,.32,.27,.59,.6,.59H3.43c.33,0,.6-.27,.6-.59V1.24c0-.32-.27-.59-.6-.59H.6Zm.1,.3c-.22,0-.4,.18-.4,.39v1.57c0,.22,.18,.39,.4,.39H3.33c.22,0,.4-.18,.4-.39V1.34c0-.22-.18-.39-.4-.39H.71Z"/>
  </g>
</svg>