<?xml version="1.0" encoding="UTF-8"?>
<svg id="uuid-d7e13e6f-94dc-47bb-bb53-bb3dc8aa599c" data-name="Слой 2" xmlns="http://www.w3.org/2000/svg" viewBox="0 0 3.48 3.6">
  <defs>
    <style>
      .uuid-4d4d9c2f-f315-484e-8a8f-566d1b63f87a {
        fill: #d4d4d4;
        fill-rule: evenodd;
      }
    </style>
  </defs>
  <g id="uuid-13770271-efdd-4846-a900-6717027bda54" data-name="Слой 1">
    <path id="uuid-4b1b2c69-5a39-4879-a23f-c71b6472b832" data-name="mute" class="uuid-4d4d9c2f-f315-484e-8a8f-566d1b63f87a" d="M0,1.3v.99c0,.12,.04,.24,.12,.31,.15,.12,.32,.09,.56,.09,.13,0,.12-.02,.18,.04,.07,.08,.14,.14,.22,.22l.55,.55s.06,.07,.13,.09c.06,.01,.12-.01,.16-.05,.04-.04,.06-.09,.06-.17V.22C1.98,.07,1.88-.02,1.77,0c-.07,.01-.09,.04-.13,.09L.87,.85c-.06,.06-.04,.04-.17,.04h-.22c-.2,0-.35,.01-.44,.21-.03,.05-.04,.11-.04,.19H0Zm2.28,.08c0,.13,.06,.15,.14,.24,.04,.04,.14,.13,.17,.18-.11,.16-.31,.22-.31,.41,0,.11,.09,.19,.22,.19,.09,0,.16-.09,.21-.14,.04-.04,.13-.14,.18-.17,.15,.1,.22,.31,.41,.31,.11,0,.19-.09,.19-.22,0-.09-.09-.16-.14-.21-.04-.04-.14-.13-.17-.18,.03-.04,.13-.13,.17-.18,.08-.08,.14-.11,.14-.24,0-.11-.09-.19-.22-.19-.14,0-.26,.22-.38,.31-.04-.03-.13-.13-.18-.17-.08-.08-.11-.14-.24-.14-.1,0-.19,.09-.19,.19Z"/>
  </g>
</svg>