<?xml version="1.0" encoding="UTF-8"?>
<svg id="uuid-6591c946-97ff-4984-ada4-9460d8cda180" data-name="Слой 2" xmlns="http://www.w3.org/2000/svg" viewBox="0 0 3.6 3.6">
  <defs>
    <style>
      .uuid-ed48bca9-9b5a-4e7b-a2d5-e6e57fdcb3d5 {
        fill: #d4d4d4;
        fill-rule: evenodd;
      }
    </style>
  </defs>
  <g id="uuid-f7fd9665-fc1f-4e0c-bdc2-fea417560b28" data-name="Слой 1">
    <path id="uuid-1400978b-24bd-406d-aaeb-8b286ab09a94" data-name="noRepeat" class="uuid-ed48bca9-9b5a-4e7b-a2d5-e6e57fdcb3d5" d="M2.59,2.81s-.1-.11-.14-.15c-.06-.07-.11-.09-.11-.2s.14-.2,.25-.09l.36,.39c.07,.08,.13,.11,.13,.21,0,.08-.08,.14-.12,.18l-.29,.31c-.06,.06-.09,.13-.18,.13-.08,0-.13-.08-.13-.13,0-.12,.03-.12,.11-.2,.03-.04,.11-.11,.13-.15H.96l.29-.31h1.35ZM3.27,.04L.22,3.36c-.05,.05-.05,.14,0,.2h0c.05,.05,.13,.05,.18,0L3.46,.24c.05-.05,.05-.14,0-.2h0c-.05-.05-.13-.05-.18,0h0ZM1.24,.13c0,.12-.03,.12-.11,.2-.03,.04-.11,.11-.13,.15h1.71s-.29,.31-.29,.31H1.01s.1,.11,.13,.15c.09,.1,.11,.1,.11,.21,0,.04-.05,.13-.13,.13-.1,0-.1-.03-.2-.13-.05-.05-.09-.1-.14-.16-.05-.05-.09-.1-.14-.16-.07-.08-.13-.11-.13-.21,0-.08,.08-.14,.12-.18L.92,.13c.06-.06,.09-.13,.18-.13,.08,0,.13,.08,.13,.13h0Zm2.04,.47l-.21,.23c.09,.05,.17,.13,.21,.23,.06,.14,.04,.3,.04,.5v.81c.03,.19,.28,.14,.28,0V1.23c0-.23-.12-.45-.28-.59-.01-.01-.03-.02-.04-.04h0ZM.37,3.02c-.1-.06-.18-.14-.24-.23-.02-.02-.03-.04-.04-.07-.04-.09-.09-.21-.09-.35V1.25c0-.19,.26-.19,.28-.02v.82c0,.19-.01,.36,.04,.5,.05,.11,.15,.21,.26,.25l-.21,.23Z"/>
  </g>
</svg>