<?xml version="1.0" encoding="UTF-8"?>
<svg id="uuid-4a2bbebe-a4e7-4190-b67a-e43b97e28060" data-name="Слой 2" xmlns="http://www.w3.org/2000/svg" viewBox="0 0 3.6 3.6">
  <defs>
    <style>
      .uuid-d1ffdb5f-fb6b-4055-a7df-c2f8fa115c16 {
        fill: #d4d4d4;
        fill-rule: evenodd;
      }
    </style>
  </defs>
  <g id="uuid-0ee3ee59-76b9-4c4d-94f3-7e04eb4d48cf" data-name="Слой 1">
    <path id="uuid-08456fbf-2613-4742-9f08-ce241ce79068" data-name="noShuffle" class="uuid-d1ffdb5f-fb6b-4055-a7df-c2f8fa115c16" d="M.67,2.7H3.15c-.04-.07-.09-.12-.1-.12,0,0,0,0-.01-.01l-.1-.12s0-.01-.01-.01l-.04-.05c-.13-.16,.01-.28,.06-.28,.1,0,.13,.06,.21,.16l.31,.37c.08,.1,.13,.13,.13,.25,0,.08-.24,.33-.29,.39-.06,.07-.27,.34-.34,.34-.1,0-.14-.06-.14-.17,0-.09,.26-.32,.33-.43-.14,0-.22,0-.37,0h0s-2.12,0-2.12,0H.11c-.1,0-.17-.19-.05-.28,.04-.03,.09-.02,.14-.02,.12,0,.3,0,.46,0H.67ZM2.83,.13c0,.11,.05,.14,.15,.26,.04,.05,.15,.16,.17,.21-.1,0-.2,0-.31,0t0,0H.11C.06,.6,0,.67,0,.73,0,.85,.05,.9,.15,.9h.46s0,0,0,0H3.15s-.09,.11-.12,.16l-.08,.1s-.01,.02-.02,.02c-.07,.08-.09,.09-.09,.19,0,.07,.06,.13,.14,.13,.07,0,.28-.27,.34-.34,.05-.06,.1-.12,.16-.18,.23-.26,.17-.26-.16-.64-.06-.07-.27-.34-.34-.34-.09,0-.14,.06-.14,.13Z"/>
  </g>
</svg>