<?xml version="1.0" encoding="UTF-8"?>
<svg id="uuid-de27e263-072e-46ea-8aaa-b55e36a62c04" data-name="Слой 2" xmlns="http://www.w3.org/2000/svg" viewBox="0 0 42.89 42.94">
  <defs>
    <style>
      .uuid-7f5fb545-290e-4fc1-9aa5-899ce968edac {
        fill: #d4d4d5;
        fill-rule: evenodd;
      }
    </style>
  </defs>
  <g id="uuid-2f9d6d6a-1f7b-467d-905c-5ee0cb588f0b" data-name="Слой 1">
    <path class="uuid-7f5fb545-290e-4fc1-9aa5-899ce968edac" d="M1.36,28.66c.31-.2,1.19-.17,1.3-1.28,.09-.74,.03-17.26,.03-18.45H40.22v15.79c0,.79-.06,1.81,0,2.61,.09,1.16,.96,1.11,1.3,1.33,.48-.11,.82-.2,1.08-.54,.23-.28,.28-.6,.28-1.02V4.28c-.17-1.7-1.25-2.92-2.64-3.74-.54-.34-1.42-.48-2.35-.54H5.44c-1.28,0-1.93,.06-2.75,.51C1.42,1.13,.2,2.61,0,4.28V26.9c.03,.54,.11,.99,.26,1.16,.26,.37,.62,.48,1.11,.6h0Zm27.67-8.08c.14,1.56-.11,6.21,.06,6.97,.11,.54,.65,1.05,1.33,1.05,1.7-.06,1.3-2.24,1.3-3.37s-.14-3.71,.03-4.68c.74,0,1.28,.11,1.76-.37,.4-.34,.62-.94,.31-1.56-.51-1.02-1.96-.77-3.49-.77-1.3,0-2.89-.26-3.4,.79-.26,.57-.03,1.25,.28,1.53,.48,.45,1.08,.31,1.81,.4h0Zm-17.38,11.62c-3.32,.51-2.72,3.91-2.72,6.29,0,1.7-.03,2.49,.94,3.49,.77,.79,2.15,1.11,3.63,.85,1.16-.2,2.07-1.02,2.41-2.01,.31-.91,.17-3.23,.17-4.31,0-1.64,0-2.55-.96-3.46-.82-.79-1.98-1.08-3.46-.85h0Zm.28,2.69c-.48,.2-.31,.85-.31,1.45l.03,3.54c.09,.31,.23,.31,.6,.34,.2,0,.74,0,.91-.06,.4-.17,.26-1.02,.26-1.5,0-.45,.06-3.29-.06-3.51-.14-.37-1.11-.4-1.42-.26h0Zm-10.6-2.18c-.26,.28-.62,.4-.99,1.13-.31,.57-.34,.94-.34,1.76v6.01c.03,.26,.09,.45,.17,.62,.26,.37,.57,.6,.94,.65h.48c.57-.11,1.08-.6,1.11-1.25,.03-.71,0-1.53,0-2.27,.94,0,1.98,.06,2.92,0,1.39-.06,1.42-.91,1.59-1.36-.23-.4-.11-.65-.48-.99-.6-.62-2.83-.37-4.03-.37,0-.62-.09-1.3,.14-1.73,.91-.23,2.32,.09,3.26-.11,.85-.17,1.42-1.19,.82-2.1-.51-.74-1.7-.54-2.81-.54-1.5,0-1.56-.03-2.78,.54h0Zm16.55,5.33c-.26,1.93,.11,3.77,1.7,4.54,.34,.17,.82,.28,1.33,.31h1.05c.48-.03,.96-.14,1.28-.28,1.62-.71,2.04-2.61,1.79-4.56v-3.69c0-.77,.06-2.24-1.39-2.18-1.28,.06-1.3,1.13-1.3,2.35,0,.6,.11,3.17-.06,3.49,0,.71,.06,1.53-.09,2.13-.43,.09-1.45,.23-1.56-.2-.06-.14-.03-1.64-.03-1.93-.17-.31-.06-2.98-.06-3.57s.09-1.19-.2-1.67c-.48-.77-1.76-.88-2.32,.11-.31,.54-.14,4.39-.14,5.16h0Zm-4.51-16.04c-.45-.74-1.9-3.66-2.44-3.94-.96-.51-1.87,.11-1.98,.96-.09,.57-.03,5.41-.03,6.43,0,1.11-.2,2.21,.51,2.81,.77,.68,1.84,.23,2.1-.57,.17-.45,.09-2.49,.09-3.17l.34,.48c.11,.2,.17,.31,.28,.54,.48,.85,1.33,2.66,1.93,2.92,1.02,.45,1.84-.26,1.9-1.13l.03-6.55c0-1.05,.2-2.13-.6-2.66-.79-.57-1.84-.03-2.04,.71-.2,.77,.06,2.3-.09,3.17h0Zm13.44,16.04c0,.65-.14,3.66,.11,4.14,.26,.43,.65,.65,1.02,.71h.37c.6-.09,1.11-.51,1.16-1.16,.09-.85,0-2.07,0-2.95l.06,.06,1.76,3.17c.2,.37,.43,.68,.85,.82,.06,.03,.11,.06,.2,.06h.6c.62-.14,1.02-.79,1.08-1.42,.06-1.05,0-2.38,0-3.46-.51-.99,.65-4.88-.71-5.64-.85-.48-1.79,.03-1.98,.79-.11,.51-.06,2.41-.06,3.09-.11-.11-.03-.03-.14-.17l-1.22-2.15c-.43-.77-.74-1.81-1.84-1.76-.54,.03-.91,.4-1.11,.74-.28,.57-.14,4.34-.14,5.13h0Zm-6.24-20.13c-3.32,.51-2.69,3.88-2.69,6.29,0,1.7-.06,2.49,.91,3.49,.79,.79,2.18,1.11,3.66,.85,1.13-.2,2.04-1.05,2.38-2.04,.31-.88,.2-3.2,.2-4.31,0-1.64-.03-2.52-.96-3.43-.85-.82-2.01-1.08-3.49-.85h0Zm.31,2.69c-.51,.2-.34,.82-.34,1.42l.03,3.57c.09,.28,.23,.31,.62,.31,.2,.03,.71,.03,.88-.06,.4-.14,.26-.99,.26-1.47s.06-3.29-.03-3.54c-.17-.37-1.13-.37-1.42-.23h0Zm14.8,16.5c0-.94-.14-3.6,.2-4.2,.23-.43,.57-.62,1.02-.71h2.83c1.73,.06,2.98,1.22,3.15,2.69v4.59c-.03,.57-.06,1.02-.09,1.16-.31,1.13-.85,1.36-1.25,1.76-1.13,.51-1.16,.51-2.61,.51-.85,0-2.15,.14-2.72-.28-1.05-.77-.11-4.71-.54-5.53h0Zm2.1-2.78c.88,0,1.7-.09,2.41,.14,0,1.45,.11,4.34-.09,5.5-.6,.43-1.5,.26-2.32,.26v-5.9ZM2.72,6.26H40.22c.06-.79,.03-1.87-.31-2.47-.26-.51-.91-.99-1.64-1.11-.99-.11-15.08,0-16.81,0H10.32c-1.67,0-4.03-.14-5.61,0-1.73,.17-2.24,1.73-1.98,3.57h0Z"/>
  </g>
</svg>