<?xml version="1.0" encoding="UTF-8"?>
<svg id="uuid-1f8d791a-24a8-4f11-b69e-8058143671b4" data-name="Слой 2" xmlns="http://www.w3.org/2000/svg" viewBox="0 0 2.89 1.81">
  <defs>
    <style>
      .uuid-d7d98a9e-6b4d-4b2c-be23-ae6a0bcabf24 {
        fill: #d4d4d5;
        fill-rule: evenodd;
      }
    </style>
  </defs>
  <g id="uuid-95fd2536-6e59-46a6-a03d-c13f741d7e5e" data-name="Слой 1">
    <path class="uuid-d7d98a9e-6b4d-4b2c-be23-ae6a0bcabf24" d="M1.28,1.08h.34c.11,0,.2,.09,.2,.2v.34c0,.11-.09,.2-.2,.2h-.34c-.11,0-.2-.09-.2-.2v-.34c0-.11,.09-.2,.2-.2h0ZM.2,0h.34c.11,0,.2,.09,.2,.2v.34c0,.11-.09,.2-.2,.2H.2c-.11,0-.2-.09-.2-.2V.2c0-.11,.09-.2,.2-.2H.2ZM1.28,0h.34c.11,0,.2,.09,.2,.2v.34c0,.11-.09,.2-.2,.2h-.34c-.11,0-.2-.09-.2-.2V.2c0-.11,.09-.2,.2-.2h0Zm1.08,0h.34c.11,0,.2,.09,.2,.2v.34c0,.11-.09,.2-.2,.2h-.34c-.11,0-.2-.09-.2-.2V.2c0-.11,.09-.2,.2-.2h0ZM.2,1.08h.34c.11,0,.2,.09,.2,.2v.34c0,.11-.09,.2-.2,.2H.2c-.11,0-.2-.09-.2-.2v-.34c0-.11,.09-.2,.2-.2H.2Z"/>
  </g>
</svg>