<?xml version="1.0" encoding="UTF-8"?>
<svg id="uuid-92647449-bcef-452f-812c-7f30f3499dd7" data-name="Слой 2" xmlns="http://www.w3.org/2000/svg" viewBox="0 0 11.99 12.01">
  <defs>
    <style>
      .uuid-f60dadeb-d681-4c5c-80ce-16797ff433c3 {
        fill: #d4d4d5;
        fill-rule: evenodd;
      }
    </style>
  </defs>
  <g id="uuid-b2f0fc29-41af-4c2b-a3c4-b7b095fb2d54" data-name="Слой 1">
    <path class="uuid-f60dadeb-d681-4c5c-80ce-16797ff433c3" d="M0,5.76v.45c0,1.22,.54,2.61,1.25,3.51l.51,.6c.45,.45,1.13,.91,1.7,1.16,1.42,.65,3.03,.71,4.48,.11l.54-.28c.48-.26,.88-.6,1.28-.96,.11-.11,.03,0,.2-.2,.45-.57,.03-1.36-.65-1.36-.48,0-.91,.57-1.5,.94-1.25,.79-2.78,.71-4.05,0-.31-.2-.62-.43-.88-.71-.28-.31-.45-.51-.68-.88-.06-.11-.11-.23-.17-.37-.11-.23-.2-.51-.26-.79-.26-1.11-.03-2.49,.62-3.4,.43-.6,.68-.85,1.33-1.28,.91-.57,2.24-.77,3.32-.4,.17,.06,.26,.11,.43,.17,.4,.17,.71,.45,1.08,.74,.06,.06,.57,.51,.6,.6-.17,.09-1.16,0-1.42,.06-.82,.17-.82,1.13-.4,1.47,.17,.14,.43,.23,.74,.23h2.92c.54,0,1.02-.23,1.02-.82V.85c0-.31-.14-.6-.43-.74-.4-.23-.91-.11-1.13,.37-.09,.2-.06,.28-.06,.54v1.19c-.14-.09-.34-.28-.45-.4-.68-.71-1.64-1.36-2.61-1.62C5.24-.34,3.17,.23,1.76,1.7c-.54,.57-.82,.96-1.19,1.7-.28,.6-.57,1.5-.57,2.35H0Z"/>
  </g>
</svg>