<?xml version="1.0" encoding="UTF-8"?>
<svg id="uuid-e99a0299-cd75-462c-a8b6-e7d991295593" data-name="Слой 2" xmlns="http://www.w3.org/2000/svg" viewBox="0 0 3.6 3.6">
  <defs>
    <style>
      .uuid-fdc817fc-d500-425f-8cbb-6d251e4aa7ef {
        fill: #d4d4d4;
        fill-rule: evenodd;
      }
    </style>
  </defs>
  <g id="uuid-351562ea-f840-473d-9f70-19c303f16029" data-name="Слой 1">
    <path id="uuid-251bd287-a3b7-4272-924d-c7a92b973c74" data-name="repeatPlaylist" class="uuid-fdc817fc-d500-425f-8cbb-6d251e4aa7ef" d="M2.59,2.81s-.1-.11-.14-.15c-.06-.07-.11-.09-.11-.2s.14-.2,.25-.09l.36,.39c.07,.08,.13,.11,.13,.21,0,.08-.08,.14-.12,.18l-.29,.31c-.06,.06-.09,.13-.18,.13-.08,0-.13-.08-.13-.13,0-.12,.03-.12,.11-.2,.03-.04,.11-.11,.13-.15H.96c-.13,0-.28,0-.39-.02-.17-.04-.34-.16-.43-.31-.02-.02-.03-.04-.04-.07-.04-.09-.09-.21-.09-.35V1.25c0-.19,.26-.19,.28-.02v.82c0,.19-.01,.36,.04,.5,.05,.12,.15,.21,.27,.25,.1,.03,.36,.01,.49,.01h1.51ZM1.24,.13c0-.05-.06-.13-.13-.13-.09,0-.13,.07-.18,.13l-.29,.31s-.12,.11-.12,.18c0,.1,.05,.13,.13,.21,.05,.05,.09,.1,.14,.16,.05,.05,.09,.1,.14,.16,.09,.1,.1,.13,.2,.13,.08,0,.13-.09,.13-.13,0-.12-.02-.11-.11-.21-.03-.04-.11-.11-.13-.15h1.51c.13,0,.39-.02,.49,.01,.12,.04,.23,.14,.27,.25,.06,.14,.04,.3,.04,.5v.81c.03,.19,.28,.14,.28,0V1.23c0-.23-.12-.45-.28-.59-.2-.18-.42-.16-.68-.16H1s.1-.11,.13-.15c.08-.08,.11-.08,.11-.2Z"/>
  </g>
</svg>