<?xml version="1.0" encoding="UTF-8"?>
<svg id="uuid-327973b2-7508-4309-baa9-2f8501b815c7" data-name="Слой 2" xmlns="http://www.w3.org/2000/svg" viewBox="0 0 3.6 3.6">
  <defs>
    <style>
      .uuid-6f1410b5-8021-4a0c-8a5c-90a71f7f8266 {
        fill: #d4d4d4;
        fill-rule: evenodd;
      }
    </style>
  </defs>
  <g id="uuid-e2ae1be3-3c03-4021-90f2-7467fd698403" data-name="Слой 1">
    <path id="uuid-7c35a591-a39f-4530-b561-f19643440e63" data-name="repeatTrack" class="uuid-6f1410b5-8021-4a0c-8a5c-90a71f7f8266" d="M1.87,1.2c.07,.02,.13,.09,.13,.18v1.02c0,.1-.08,.18-.17,.18s-.17-.08-.17-.18v-.61l-.03,.03c-.07,.07-.17,.07-.24,0-.07-.07-.07-.19,0-.26l.3-.32c.05-.05,.12-.07,.18-.04h0ZM1.24,.13c0-.05-.06-.13-.13-.13-.09,0-.13,.07-.18,.13l-.29,.31s-.12,.11-.12,.18c0,.1,.05,.13,.13,.21,.05,.05,.09,.1,.14,.16,.05,.05,.09,.1,.14,.16,.09,.1,.1,.13,.2,.13,.08,0,.13-.09,.13-.13,0-.12-.02-.11-.11-.21-.03-.04-.11-.11-.13-.15h1.51c.13,0,.39-.02,.49,.01,.12,.04,.23,.14,.27,.25,.06,.14,.04,.3,.04,.5v.81c.03,.19,.28,.14,.28,0V1.23c0-.23-.12-.45-.28-.59-.2-.18-.42-.16-.68-.16H1s.1-.11,.13-.15c.08-.08,.11-.08,.11-.2h0Zm1.36,2.68H1.08c-.13,0-.39,.02-.49-.01-.12-.04-.23-.14-.27-.25-.06-.14-.04-.3-.04-.5v-.82c-.02-.17-.28-.16-.28,.02v1.12c0,.14,.05,.26,.09,.35,.01,.03,.03,.05,.04,.07,.09,.15,.27,.27,.43,.31,.11,.03,.26,.02,.39,.02h1.65s-.1,.11-.13,.15c-.08,.08-.11,.08-.11,.2,0,.05,.06,.13,.13,.13,.09,0,.13-.07,.18-.13l.29-.31s.12-.11,.12-.18c0-.1-.05-.13-.13-.21l-.36-.39c-.1-.11-.25-.03-.25,.09s.05,.13,.11,.2c.03,.04,.11,.11,.14,.15Z"/>
  </g>
</svg>