<?xml version="1.0" encoding="UTF-8"?>
<svg id="uuid-f37949e3-44e4-4577-a863-c589fc199ec9" data-name="Слой 2" xmlns="http://www.w3.org/2000/svg" viewBox="0 0 9.6 9.61">
  <defs>
    <style>
      .uuid-287b5bf1-97dc-4fb2-bdfe-d33f477c2486 {
        fill-rule: evenodd;
      }
    </style>
  </defs>
  <g id="uuid-cc970715-0fc0-40a4-9a33-6dba750087e4" data-name="Слой 1">
    <path class="uuid-287b5bf1-97dc-4fb2-bdfe-d33f477c2486" d="M8.05,9.61c.14,0,.26-.09,.31-.17,.09-.11,.14-.31,.14-.45,0-.09-.09-.6-.11-.68h-.91l.14,.82c.03,.14,.09,.26,.14,.34,.09,.06,.17,.14,.28,.14h0ZM.82,1.59c0,.4,0,.37,.06,.79,.37,0,.74,.4,.88,.79,.11,.31,.23,1.25,.28,1.64,.06,.45,.06,.74,.43,.74H7.11c.43,0,.4-.31,.45-.82,.03-.2,.09-.43,.09-.62,.11-.62,.14-1.11,.57-1.5,.2-.17,.34-.2,.37-.2,.06-.06,.03,0,.06-.28,.14-1.19-.48-2.13-1.19-2.13H2.07c-.45,0-.77,.28-.99,.68-.11,.2-.26,.62-.26,.91H.82ZM0,3.88c0,.23,.03,.4,.03,.62l.06,1.36c.03,.26,0,.45,.06,.68,.09,.71,.6,1.33,1.11,1.33h7.11c.51,0,1.02-.62,1.11-1.33l.11-2.01c.03-.51,.09-1.08-.23-1.45-.34-.48-.88-.4-1.19,.14-.14,.28-.23,1.11-.28,1.59-.09,.43-.11,1.13-.65,1.13H2.35c-.14,0-.23-.06-.34-.17-.2-.2-.23-.6-.26-.94-.03-.17-.06-.37-.09-.57-.06-.37-.09-.77-.23-1.02-.26-.51-.77-.62-1.08-.31-.2,.2-.37,.51-.37,.85v.09Zm1.08,5.07c0,.2,.09,.37,.14,.45,.23,.34,.65,.23,.77-.26,.03-.11,.03-.28,.06-.43,.03-.11,.09-.31,.09-.43h-.94c0,.06-.11,.6-.11,.65h0Z"/>
  </g>
</svg>