<?xml version="1.0" encoding="UTF-8"?>
<svg id="uuid-e2e565f3-69e5-4cdd-9b39-5b433f891b7e" data-name="Слой 2" xmlns="http://www.w3.org/2000/svg" viewBox="0 0 9.61 9.61">
  <defs>
    <style>
      .uuid-f37c4480-e247-403b-8dbd-892119fd8abe {
        fill-rule: evenodd;
      }
    </style>
  </defs>
  <g id="uuid-f0e9dff6-c2ba-4893-aeab-5ad9bd64d6b4" data-name="Слой 1">
    <path class="uuid-f37c4480-e247-403b-8dbd-892119fd8abe" d="M0,.94V6.97c0,.4,.31,.77,.71,.88,.26,.09,1.16,.03,1.53,.03h3.17l-.23-2.3c0-.17-.06-.4-.03-.54,.06-.37,.23-.62,.51-.79s.68-.17,.96-.03c.2,.11,1.36,1.05,1.64,1.28,.11,.09,.2,.17,.31,.26,.06,.03,.11,.09,.17,.11,.06,.06,.11,.09,.17,.14V3.09c0-.77,.14-1.42-.34-1.87-.11-.09-.31-.2-.48-.23-.57-.06-2.64-.03-3.43-.03-.17,0-.14-.03-.37-.2-.17-.11-.94-.77-1.08-.77H.91C.65,0,.43,.17,.28,.28c-.11,.14-.28,.4-.28,.65H0ZM5.84,5.1l.14,1.79c.06,.23,.06,.4,.06,.62,.06,.37,.09,.79,.14,1.16,.06,.54-.03,.94,.45,.94,.17,0,.26-.17,.31-.28,.09-.14,.17-.26,.23-.4l.48-.77c.14-.23,.14-.11,.45-.17,.2-.03,.4,0,.6-.03,.43-.03,.91,.06,.91-.4,0-.2-.17-.28-.34-.43l-2.15-1.7c-.14-.11-.77-.65-.91-.65-.23,0-.37,.17-.37,.31h0Z"/>
  </g>
</svg>