<?xml version="1.0" encoding="UTF-8"?>
<svg id="uuid-1b08889e-9d15-47f3-a6a1-e56d9248a7f1" data-name="Слой 2" xmlns="http://www.w3.org/2000/svg" viewBox="0 0 15.36 15.37">
  <defs>
    <style>
      .uuid-967473f9-05fe-4828-a1ff-6e78ffc4a1f9 {
        fill: #d4d4d5;
        fill-rule: evenodd;
      }
    </style>
  </defs>
  <g id="uuid-f064d90e-6763-43ca-818b-5dfce2499a75" data-name="Слой 1">
    <path class="uuid-967473f9-05fe-4828-a1ff-6e78ffc4a1f9" d="M9.47,3.94c-.06,.28,0,.26,.28,.54,.11,.14,.28,.31,.4,.45-.26,.37-.88,.71-.65,1.02,.26,.34,.68-.48,.99-.68,.14,.17,.26,.31,.4,.45,.11,.09,.31,.45,.54,.26,.23-.23-.14-.48-.2-.54-.11-.14-.31-.37-.43-.48,.06-.17,.28-.37,.43-.48,.09-.11,.4-.34,.2-.57-.28-.31-.65,.51-.99,.68-.11-.14-.31-.34-.45-.48-.17-.2-.23-.4-.51-.17h0ZM4.9,15.08c-.09-.11-.09-.17-.2-.23-.23-.06-.68,.11-.94-.14-.26-.26-.28-.68,.17-.99,1.3-.85,.85-.62,2.32-.65,1.13,.03,2.27,0,3.4,0,.91,0,.54-.11,1.33,.4,.4,.26,.91,.43,.77,.96s-.79,.43-1.33,.43H6.21c-.51,0-.48-.06-.71,.11l-.03,.11c.06,.37,.37,.28,.99,.28,.77,0,4.65,.03,4.99-.06,.82-.2,1.13-1.42,.28-1.96-.14-.09-.34-.17-.4-.28h1.79c.77,0,1.02,.06,1.5-.28,.51-.37,.68-.85,.74-1.39V2.07c0-.68-.03-.91-.43-1.45-.09-.14-.37-.34-.51-.43-.17-.09-.45-.17-.71-.17C12.56-.03,11.31,.03,10.15,.03H3.88c-.34,0-.65-.09-.68,.26,.06,.2,.17,.23,.37,.23H12.13c1.02,0,2.3-.26,2.69,.79,.11,.37,.09,.74,.09,1.13v7.34c0,.71,.11,1.67-.2,2.21-.4,.71-1.11,.6-1.73,.6H3.88c-.71,0-1.59,.06-2.27,0-.54-.03-.91-.37-1.08-.82-.14-.37-.09-1.36-.09-1.84V2.24c0-.77,.06-1.08,.45-1.45,.45-.4,.94-.26,1.56-.28,.11-.09,.11-.06,.14-.23C2.61-.08,2.15,0,1.67,.03,1.3,.03,.99,.17,.77,.31c-.26,.2-.43,.37-.57,.68-.2,.4-.2,.51-.2,1.02V11H0c0,.51,0,.74,.17,1.11,.23,.48,.77,.96,1.45,.96h2.41c-.11,.17-1.22,.51-.82,1.64,.26,.65,.82,.62,1.3,.65,.26,0,.34-.06,.4-.28h0ZM1.05,1.3c-.2,.6-.14,.26-.14,1.05v5.95c0,.62-.06,1.81,.06,2.35,.17,.2,.2,.4,.54,.45,.26,.09,9.75,.03,10.6,.03,.37,0,1.62,.06,1.87-.06,.23-.09,.4-.28,.45-.54,.06-.26,.09-.71-.2-.74-.45,.03,.06,.82-.54,.85-.43,.03-.91,0-1.33,0H1.81c-.57,0-.45-.4-.45-.91V2.69c0-.4-.14-1.11,.23-1.19,.23-.06,10.69-.03,11.88-.03,.65,0,.54,.26,.54,.85v6.35c0,.28-.03,.43,.23,.48,.28-.03,.23-.17,.23-.48V2.21c0-1.36-.54-1.22-1.59-1.22H2.07c-.2,0-.45-.03-.62,.06-.28,.09-.28,.23-.4,.26h0ZM7.29,6.32c-.62,.11-1.13,.37-1.5,.68-.2,.2-.62,.65-.71,.94-.06,.17,.03,.31,.17,.31,.26,.03,.23-.2,.54-.54,.17-.2,.31-.37,.57-.54,.48-.28,1.11-.48,1.76-.34,1.33,.23,1.76,1.3,1.84,1.39,.14,.09,.57,.03,.23-.51-.48-.77-1.53-1.59-2.89-1.39h0Zm-2.72-1.39c-.23,.37-.88,.74-.62,1.02,.2,.26,.43-.11,.51-.2,.17-.17,.28-.31,.43-.48,.34,.2,.71,.99,.99,.68,.28-.28-.37-.65-.62-1.02,.09-.14,.26-.28,.37-.43,.11-.11,.4-.37,.31-.57-.31-.23-.37-.06-.57,.14-.11,.11-.34,.43-.45,.48-.17-.14-.28-.28-.43-.43-.09-.11-.34-.45-.54-.23-.2,.23,.11,.45,.2,.54,.14,.14,.31,.31,.43,.48h0Z"/>
  </g>
</svg>