<?xml version="1.0" encoding="UTF-8"?>
<svg id="uuid-f39e7ec5-6de2-4870-a83c-a6864a7d5c07" data-name="Слой 2" xmlns="http://www.w3.org/2000/svg" viewBox="0 0 3.38 3.2">
  <defs>
    <style>
      .uuid-19e11b42-3538-486e-b9b0-5821c96a7261 {
        fill: #d4d4d4;
        fill-rule: evenodd;
      }
    </style>
  </defs>
  <g id="uuid-4d8a3485-d63f-4326-98c1-94e245539b57" data-name="Слой 1">
    <path id="uuid-b2c42eaa-118b-41e1-a54f-02eb6d8294ea" data-name="gear" class="uuid-19e11b42-3538-486e-b9b0-5821c96a7261" d="M.56,.44c0,.05,.02,.07,.03,.11,.08,.28-.11,.53-.37,.56-.08,0-.13,.04-.17,.11-.06,.1-.08,.61,0,.72,.1,.15,.27,.03,.44,.24,.2,.24,.04,.49,.04,.54,0,.15,.13,.22,.26,.3,.07,.04,.29,.17,.38,.17,.04,0,.11-.02,.14-.06,.07-.07,.09-.13,.22-.19,.19-.08,.36-.02,.49,.11,.02,.02,.03,.03,.05,.05,.11,.11,.24,.05,.35,0,.09-.05,.32-.18,.37-.26,.08-.14-.02-.2-.02-.37,0-.19,.13-.35,.31-.41,.08-.03,.17-.01,.23-.13,.07-.11,.07-.59,0-.71-.02-.04-.05-.07-.09-.09-.08-.04-.21-.02-.34-.18-.18-.22-.05-.39-.05-.52,0-.16-.31-.31-.42-.37-.12-.06-.26-.12-.37-.02-.06,.07-.08,.11-.21,.16-.15,.06-.3,.03-.42-.07-.05-.04-.06-.06-.09-.09-.14-.14-.38,.01-.53,.1-.11,.06-.24,.15-.24,.28H.56Zm1.13,.6c.31,0,.57,.25,.57,.57s-.25,.57-.57,.57-.57-.25-.57-.57,.25-.57,.57-.57Z"/>
  </g>
</svg>