<?xml version="1.0" encoding="UTF-8"?>
<svg id="uuid-54d71306-d74e-40a8-b4bb-919861f31cda" data-name="Слой 2" xmlns="http://www.w3.org/2000/svg" viewBox="0 0 3.6 3.6">
  <defs>
    <style>
      .uuid-7adbc389-05b2-42ae-aa97-ce562d10a763 {
        fill: #d4d4d4;
        fill-rule: evenodd;
      }
    </style>
  </defs>
  <g id="uuid-e0546aa3-0512-423b-8915-a0c14522e897" data-name="Слой 1">
    <path id="uuid-ce2d8771-5daf-40f0-a344-4c47e119481f" data-name="shuffle" class="uuid-7adbc389-05b2-42ae-aa97-ce562d10a763" d="M2.83,.13c0,.11,.05,.14,.15,.26,.04,.05,.15,.16,.17,.21h-.31c-.12,0-.19,.01-.27,.05-.19,.07-.34,.2-.46,.38l-.73,1.19c-.14,.23-.26,.43-.55,.47-.12,.02-.48,0-.63,0-.06,0-.11,0-.14,.02-.12,.09-.05,.28,.05,.28H.8c.27,0,.53-.19,.68-.42,.18-.28,.36-.59,.54-.88l.21-.35c.12-.19,.19-.34,.42-.42,.14-.05,.32-.03,.49-.03-.03,.05-.09,.11-.12,.16l-.08,.1s-.01,.02-.02,.02c-.07,.08-.09,.09-.09,.19,0,.07,.06,.13,.14,.13,.07,0,.28-.27,.34-.34,.05-.06,.1-.12,.16-.18,.23-.26,.17-.26-.16-.64-.06-.07-.27-.34-.34-.34-.09,0-.14,.06-.14,.13h0ZM0,.73C0,.67,.06,.6,.11,.6H.8c.19,0,.41,.12,.52,.23,.08,.08,.11,.12,.17,.21,.14,.21,.25,.39,.25,.42,0,.03-.06,.09-.09,.14-.07,.13-.07,.16-.14,.04l-.26-.45c-.08-.12-.18-.2-.32-.25-.15-.05-.58-.03-.78-.03C.05,.9,0,.85,0,.73H0Zm1.83,1.43s.09-.16,.11-.19c.01-.02,.03-.04,.03-.06,.03,0,.02,0,.03,.03l.28,.39c.25,.41,.46,.37,.87,.37-.04-.07-.09-.12-.1-.12,0,0,0,0-.01-.01l-.1-.12s0-.01-.01-.01l-.04-.05c-.13-.16,.01-.28,.06-.28,.1,0,.13,.06,.21,.16l.31,.37c.08,.1,.13,.13,.13,.25,0,.08-.24,.33-.29,.39-.06,.07-.27,.34-.34,.34-.1,0-.14-.06-.14-.17,0-.09,.26-.32,.33-.43-.14,0-.31,.01-.44,0-.23-.04-.43-.18-.57-.37l-.28-.38s-.04-.06-.04-.08Z"/>
  </g>
</svg>