<?xml version="1.0" encoding="UTF-8"?>
<svg id="uuid-84910228-158a-40f4-907a-e205977b0867" data-name="Слой 2" xmlns="http://www.w3.org/2000/svg" viewBox="0 0 62.41 62.39">
  <defs>
    <style>
      .uuid-774b7bcc-a732-4d6b-9fb1-4c2ceda64917 {
        fill: #d4d4d5;
        fill-rule: evenodd;
      }
    </style>
  </defs>
  <g id="uuid-66346977-44cd-4ad8-9ff2-99ccba04b205" data-name="Слой 1">
    <path class="uuid-774b7bcc-a732-4d6b-9fb1-4c2ceda64917" d="M39.71,36.82h2.07V15.17c0-2.58,1.79-4.68,3.97-4.68h.37c.51,.03,1.05,.2,1.56,.54l12.53,7.99c1.87,1.19,2.72,4.03,1.87,6.32h0c-.82,2.3-3.03,3.2-4.9,2.01l-7.46-4.76v27.21c0,6.94-4.82,12.59-10.69,12.59h-.37c-5.67,0-10.32-5.47-10.32-12.16h0c0-7.37,5.13-13.41,11.37-13.41h0ZM15.14,23.9h15.02c1.9,0,3.49,1.81,3.49,4s-1.59,3.97-3.49,3.97H15.14c-1.93,0-3.51-1.79-3.51-3.97s1.59-4,3.51-4h0Zm0-12.27h15.02c1.9,0,3.49,1.79,3.49,3.97s-1.59,4-3.49,4H15.14c-1.93,0-3.51-1.79-3.51-4s1.59-3.97,3.51-3.97h0ZM4.22,23.9h-.74c-1.9,0-3.49,1.81-3.49,4s1.59,3.97,3.49,3.97h.74c1.9,0,3.49-1.79,3.49-3.97s-1.59-4-3.49-4h0Zm0-12.27h-.74c-1.9,0-3.49,1.79-3.49,3.97s1.59,4,3.49,4h.74c1.9,0,3.49-1.79,3.49-4s-1.59-3.97-3.49-3.97h0ZM4.22,0h-.74C1.59,0,0,1.79,0,4s1.59,3.97,3.49,3.97h.74c1.9,0,3.49-1.79,3.49-3.97S6.12,0,4.22,0h0ZM15.14,0h15.02c1.9,0,3.49,1.79,3.49,4s-1.59,3.97-3.49,3.97H15.14c-1.93,0-3.51-1.79-3.51-3.97s1.59-4,3.51-4h0Z"/>
  </g>
</svg>