<?xml version="1.0" encoding="UTF-8"?>
<svg id="uuid-9635f4cf-7487-43ef-a751-307bdc0b2919" data-name="Слой 2" xmlns="http://www.w3.org/2000/svg" viewBox="0 0 3.6 3.6">
  <defs>
    <style>
      .uuid-842f628b-cd79-45df-8d68-903183043215 {
        fill: #d4d4d5;
        fill-rule: evenodd;
      }
    </style>
  </defs>
  <g id="uuid-3bafb786-5a37-418f-b225-d029f9f808c8" data-name="Слой 1">
    <path id="uuid-51d57b9e-5cd1-4504-85f7-f5e6ce1ad3c4" data-name="TracksCount" class="uuid-842f628b-cd79-45df-8d68-903183043215" d="M.34,2.95H3.26c.2,0,.34,.14,.34,.31h0c0,.2-.14,.34-.34,.34H.34c-.2,0-.34-.14-.34-.34H0c0-.17,.14-.31,.34-.31H.34ZM.34,0H3.26c.2,0,.34,.14,.34,.34h0c0,.17-.14,.34-.34,.34H.34c-.2,0-.34-.17-.34-.34H0c0-.2,.14-.34,.34-.34H.34ZM.34,1.47H3.26c.2,0,.34,.14,.34,.34h0c0,.17-.14,.31-.34,.31H.34c-.17,0-.34-.14-.34-.31H0c0-.2,.17-.34,.34-.34H.34Z"/>
  </g>
</svg>