<?xml version="1.0" encoding="UTF-8"?>
<svg id="uuid-01b5056e-8c24-4cd2-b4c0-e45c2f16e8fb" data-name="Слой 2" xmlns="http://www.w3.org/2000/svg" viewBox="0 0 1.92 2.4">
  <defs>
    <style>
      .uuid-dec6f071-adb3-4ecd-8bb7-09d92f281cd7 {
        fill: #ff5757;
        fill-rule: evenodd;
      }
    </style>
  </defs>
  <g id="uuid-1593acf7-b28b-4bef-8ed8-7b6209cde068" data-name="Слой 1">
    <path id="uuid-188e4b77-b429-49f2-b584-ef1a6b7f7cb4" data-name="trash" class="uuid-dec6f071-adb3-4ecd-8bb7-09d92f281cd7" d="M.51,.2v.08H.18c-.09,0-.18,.1-.18,.2,0,.08,.02,.14,.08,.19,.02,.01,.03,.02,.05,.03,0,.11,.03,.34,.03,.46,0,.09,.02,.26,.03,.35,0,.04,0,.08,0,.12v.17s.02,.04,.02,.06l.02,.23c.01,.1,0,.2,.1,.27,.02,.01,.06,.03,.08,.03H1.5s.11-.05,.14-.09c.05-.08,.04-.22,.05-.33l.05-.7c0-.09,.02-.25,.03-.35,0-.07,.02-.16,.02-.23,.05-.03,.05-.02,.09-.07,.03-.04,.04-.09,.04-.15,0-.1-.09-.2-.18-.2h-.33v-.08c0-.1-.09-.2-.18-.2H.69c-.09,0-.18,.1-.18,.2H.51Zm-.26,.18H1.66c.06,0,.11,.05,.11,.1h0c0,.06-.05,.1-.11,.1H.26c-.06,0-.11-.05-.11-.1H.15c0-.06,.05-.1,.11-.1H.26ZM.9,.9c0-.08,.13-.08,.13,0v1.15c0,.08-.13,.08-.13,0V.9H.9Zm.32,1.16c0-.12,.04-1.14,.07-1.19,.04-.06,.12-.03,.12,.02,0,.13-.05,1.14-.07,1.19-.04,.06-.12,.03-.12-.02h0ZM.51,.9s.13-.12,.13,.06c0,.35,.04,.69,.06,1.03,0,.04,0,.09-.02,.12-.03,.03-.08,.02-.1-.02-.02-.03-.07-1.02-.07-1.19Z"/>
  </g>
</svg>